# xmcd
# Track frame offsets:
# 182
# 16305
# 33272
# 49782
# 63507
# 77442
# 87102
# 99812
# 114917
# 127967
# 145850
# 159860
# 172472
# 188677
#
# Disc length: 2702 seconds
# Revision: 0
# Processed by: cddbd v1.4PL0 Copyright (c) Steve Scherf et al.
# Submitted via: VisiTrax 2.9.5.181 - For more info visit www.synapsa.com
#
DISCID=a30a8c0e
DTITLE=Various Artist - Country Love
DYEAR=1900
DGENRE=
TTITLE0=Willie Nelson - Always on my mind
TTITLE1=Judds - Cry myself to sleep
TTITLE2=Alabama - When we make love
TTITLE3=Ronnie Milsap - Stand by my woman man
TTITLE4=Tammy Wynette - Til i can make it on my own
TTITLE5=Tom T. Hall - I Love
TTITLE6=Charlie Rich - A very special love song
TTITLE7=Waylon Jennings - Luckenbach Texas
TTITLE8=Jerry Lee Lewis - Would you take another chance on me
TTITLE9=Rosanne Cash - The way we make broken hearts
TTITLE10=Merle Haggard - Thats the way love goes
TTITLE11=Johnny Rodriguez - Love put a song in my heart
TTITLE12=Exile - I don't want to be a memory
TTITLE13=Dolly Parton - I will always love you
EXTD=
EXTT0=
EXTT1=
EXTT2=
EXTT3=
EXTT4=
EXTT5=
EXTT6=
EXTT7=
EXTT8=
EXTT9=
EXTT10=
EXTT11=
EXTT12=
EXTT13=
PLAYORDER=
